<?xml version="1.0" encoding="utf-8"?>
<!-- Generator: Adobe Illustrator 24.0.1, SVG Export Plug-In . SVG Version: 6.00 Build 0)  -->
<svg version="1.1" id="Camada_1" xmlns="http://www.w3.org/2000/svg" xmlns:xlink="http://www.w3.org/1999/xlink" x="0px" y="0px"
	 viewBox="0 0 1276.44 329.95" style="enable-background:new 0 0 1276.44 329.95;" xml:space="preserve">
<style type="text/css">
	.st0{fill:#FFFFFF;}
</style>
<g>
	<path class="st0" d="M299.82,271.09c5.74-2.77,11.51-5.22,16.86-8.37c1.48-0.87,2.41-3.82,2.43-5.82
		c0.16-25.12,0.11-50.25,0.1-75.37c0-1.82,0-3.64,0-6.25c8.68,0,17.09-0.15,25.49,0.23c0.85,0.04,2.21,3.29,2.22,5.05
		c0.15,22.63,0.1,45.25,0.1,67.88c0,6.99,0.14,13.98-0.05,20.96c-0.14,5.22,0.47,10.02,3.08,14.79c3.15,5.76,0.24,12.46-5.54,15.35
		c-14.58,7.27-29.15,14.55-43.58,22.1c-12.89,6.74-26.22,2.82-32.47-10.3c-10.25-21.52-20.23-43.18-30.36-64.76
		c-0.55-1.18-1.4-2.23-2.53-4c-14.72,29.68-36.93,51.12-67.6,62.81c-30.7,11.69-61.78,11.36-91.97-1.61
		C18.97,279.26-6.07,222.95,2.8,169.74c8.22-49.3,49.67-92.8,98.65-97.74c0-9.05-0.36-18.18,0.08-27.27
		c0.75-15.5,8.36-27.35,21.42-35.3c16.77-10.21,33.64-9.27,49.63,1.9c11.44,7.99,17.52,19.38,18.67,33.3
		c2.02,24.41-16.6,45.18-40.66,48.37c-0.64,0.09-1.28,0.22-2.35,0.41c0,6.16-0.17,12.3,0.15,18.42c0.06,1.18,1.92,3.1,3.14,3.26
		c22.22,2.88,44.47,5.5,66.69,8.29c6.51,0.82,12.98,1.89,19.44,3.02c5.56,0.97,10.06,6.02,9.49,11.58
		c-0.88,8.47-2.25,16.91-3.94,25.26c-1.08,5.35-4.95,8.28-10.41,7.81c-11.16-0.95-22.29-2.33-33.41-3.72
		c-15.83-1.98-31.65-4.15-47.47-6.21c-0.79-0.1-1.61-0.01-2.76-0.01c0,4.14,0,8.02,0,12.54c2.18,0,4.12,0,6.07,0
		c27.48,0,54.95,0.08,82.43-0.02c10.92-0.04,18.51,4.72,23.14,14.58C273.74,215.8,286.76,243.34,299.82,271.09z M102.01,118.52
		c-30.88,5.05-60.68,40.49-54.37,84.1c5.24,36.22,36.25,65.67,77.02,65.5c36.4-0.15,64.08-26.16,70.21-49.05
		c-22.36,0-44.66,0.02-66.96-0.01c-10.06-0.01-19.31-6.73-21.41-16.61c-2.31-10.84-3.76-21.75-3.36-33.06
		c0.59-16.47-0.45-33-0.81-49.5C102.33,119.43,102.12,118.98,102.01,118.52z"/>
	<path class="st0" d="M1272.24,296.49c-7.02,0-13.97,0.11-20.91-0.12c-0.94-0.03-2.32-1.59-2.65-2.69c-0.84-2.79-1.2-5.72-1.63-7.95
		c-5.07,3.75-9.56,8.47-15.06,10.87c-14.57,6.35-31.35-1.17-39.58-16.65c-5.14-9.68-7.65-20.12-8.44-30.87
		c-1.17-15.8-0.52-31.57,4.7-46.74c3.55-10.32,8.32-20.18,18.57-25.46c10.91-5.62,24.43-6.87,37.41,8.18c0-3.54,0-6.45,0-9.36
		c0-16.13,0.09-32.27-0.07-48.4c-0.03-3.51,1.15-4.68,4.6-4.6c7.6,0.18,15.21,0.06,23.07,0.06
		C1272.24,180.9,1272.24,238.38,1272.24,296.49z M1244.64,237.04c0-7.64,0.03-15.29-0.01-22.93c-0.03-6.22-4.84-11.88-11.57-13.7
		c-6.22-1.68-12.65,0.26-15.18,6.13c-2.76,6.41-4.83,13.36-5.74,20.26c-1.58,12.04-1.42,24.18,3.29,35.74
		c2.89,7.09,9.24,10.53,16.25,9.27c6.52-1.17,13.96-6.88,13.11-14.85C1244.08,250.4,1244.64,243.69,1244.64,237.04z"/>
	<path class="st0" d="M886.11,296c-9.26,0-18,0-27.42,0c0-2.07,0-3.84,0-5.61c0-53.9,0.06-107.81-0.1-161.71
		c-0.01-4.62,1.24-6.06,5.84-5.82c6.95,0.37,13.94,0.1,21.74,0.1c0,21.32,0,42.27,0,64.75c2.12-2.25,3.11-3.26,4.07-4.31
		c15.05-16.53,39.38-12.5,48.67,7.91c4.08,8.97,5.55,18.47,5.69,28.06c0.34,24.12,0.07,48.24,0.2,72.37
		c0.02,3.41-0.89,4.73-4.45,4.63c-7.61-0.22-15.24-0.07-23.5-0.07c0-2.35,0-4.11,0-5.88c0-22.79,0.1-45.59-0.09-68.38
		c-0.04-4.41-0.66-8.97-1.92-13.19c-2.25-7.54-7.72-10.32-16.08-8.64c-6.16,1.25-12.72,4.98-12.55,13.42
		c0.52,25.44,0.19,50.9,0.18,76.36C886.36,291.92,886.2,293.86,886.11,296z"/>
	<path class="st0" d="M1022.69,224.16c0-4.92,0.3-9.23-0.07-13.49c-0.6-7.05-5.89-12.14-12.5-12.57
		c-6.85-0.44-11.36,3.26-13.21,10.87c-0.23,0.94-0.38,1.9-0.7,3.5c-7.92,0-15.87,0.12-23.8-0.17c-0.92-0.03-2.5-2.39-2.5-3.67
		c-0.05-11.65,5.57-20.53,14.48-27.44c13-10.07,35.52-10.83,49.31-1.89c11.22,7.28,16.36,18.14,16.84,31
		c0.59,15.94-0.11,31.92,0.54,47.86c0.47,11.54,2.23,23.02,3.39,34.53c0.1,0.97,0.01,1.96,0.01,3.75c-8.48,0-16.87,0.09-25.25-0.14
		c-0.87-0.02-2.04-1.9-2.44-3.12c-1.19-3.58-2.07-7.26-3.15-11.2c-2.5,2.97-4.78,5.7-7.08,8.4c-12.17,14.24-37.44,8.83-45.61-5.28
		c-7.87-13.59-7.73-34.46,1.51-46.65c8-10.55,19.75-13.39,32.13-14.21C1010.36,223.84,1016.2,224.16,1022.69,224.16z
		 M1022.77,244.03c-5.43,0-10.23-0.09-15.01,0.05c-1.63,0.05-3.28,0.53-4.85,1.04c-5.67,1.85-8.54,6.12-9.19,11.76
		c-0.61,5.27-1.14,10.85,4.18,14.39c8.19,5.44,24.12-2.36,24.81-12.19C1023.05,254.31,1022.77,249.5,1022.77,244.03z"/>
	<path class="st0" d="M750.11,296.48c-8.62,0-16.88,0.12-25.12-0.15c-1.05-0.03-2.48-1.96-2.96-3.29
		c-1.28-3.54-2.14-7.23-3.09-10.58c-3.81,3.94-7.13,8.45-11.43,11.6c-12.42,9.09-32.72,4.91-40.7-8.39
		c-7.96-13.25-8.62-27.55-2.48-41.47c6.59-14.96,20.44-18.84,35.26-19.96c5.92-0.45,11.91-0.07,18.97-0.07
		c-0.59-6.2-0.51-12.02-1.86-17.49c-1.39-5.65-7.05-8.89-12.55-8.57c-6.53,0.38-10.13,3.4-11.51,10.16
		c-0.63,3.1-1.85,4.47-5.24,4.32c-6.14-0.27-12.31-0.17-18.47-0.05c-3.04,0.06-4.12-1.14-3.95-4.16c0.83-14.67,8.39-25.11,21.32-31
		c14.13-6.43,28.64-6.39,42.37,1.84c11.74,7.04,16.68,18.2,17.09,31.27c0.52,16.61-0.12,33.25,0.54,49.85
		c0.43,10.87,2.29,21.68,3.5,32.52C749.92,293.82,749.97,294.78,750.11,296.48z M718.01,244.01c-5.21,0-9.69-0.16-14.15,0.03
		c-7.59,0.32-12.56,4.07-14.53,10.65c-2.44,8.15,0.5,16.55,6.79,17.98c5.74,1.3,10.97-0.36,15.8-3.99
		C720.64,262.12,717.73,253.07,718.01,244.01z"/>
	<path class="st0" d="M1103.44,189.74c10.77-15.16,24.08-20.01,38.23-14.53c11.47,4.45,16.38,14.19,18.64,25.25
		c1.52,7.41,2.04,15.13,2.13,22.72c0.27,22.44,0.09,44.89,0.09,67.34c0,1.79,0,3.57,0,5.68c-9.4,0-18.32,0-27.93,0
		c0-1.86,0-3.61,0-5.36c0-22.95,0.05-45.89-0.05-68.84c-0.02-3.62-0.36-7.33-1.16-10.86c-2.54-11.16-13.96-15.11-23.24-8.16
		c-3.87,2.9-6.08,6.26-6,11.7c0.34,25.27,0.03,50.55,0.25,75.82c0.04,4.81-1.37,6.44-6.18,6.12c-5.8-0.39-11.65-0.24-17.47-0.04
		c-3.37,0.12-4.75-0.91-4.74-4.48c0.09-37.41,0.08-74.82,0.01-112.23c-0.01-3.34,0.97-4.85,4.56-4.72
		c5.82,0.22,11.65,0.19,17.47,0.01c3.18-0.1,4.55,0.97,4.55,4.24C1102.61,182.51,1103.08,185.63,1103.44,189.74z"/>
	<path class="st0" d="M498.07,245.95c1.44,5.45,2.09,10.26,3.96,14.54c4.42,10.16,12.3,13.77,25.25,11.17
		c5.54-1.11,10.75-3.91,16.07-6.01c1.35-0.53,2.59-1.35,4.63-2.44c2.42,6.88,4.91,13.28,6.78,19.85c0.32,1.14-1.62,3.45-3.05,4.48
		c-24.62,17.7-66.94,18.53-78.46-25.19c-5.8-22.01-5.06-44.05,4.92-65.06c10.01-21.08,32.01-29.81,53.35-20.95
		c12.71,5.27,19.6,16.16,22.08,28.86c2.37,12.09,2.3,24.66,3.26,37.03c0.29,3.7-2.2,3.76-4.92,3.75
		c-15.65-0.05-31.29-0.03-46.94-0.03C503.19,245.95,501.39,245.95,498.07,245.95z M529.87,222.9c-0.97-5.36-1.3-10.31-2.81-14.88
		c-3.02-9.16-14.58-11.4-21.25-4.27c-4.96,5.3-6.08,12.02-6.71,19.15C509.22,222.9,518.8,222.9,529.87,222.9z"/>
	<path class="st0" d="M365.02,175.23c9.49,0,18.26-0.11,27.01,0.15c1.02,0.03,2.6,1.99,2.88,3.28c5.6,25.35,11.05,50.74,16.82,77.48
		c2.33-10.6,4.43-19.95,6.43-29.33c3.41-16,6.73-32.01,10.2-48c0.28-1.27,1.45-3.33,2.25-3.35c8.89-0.24,17.79-0.15,27.55-0.15
		c-2.7,9.95-5.13,18.98-7.6,27.99c-7.18,26.12-14.37,52.23-21.57,78.34c-1.05,3.81-2.2,7.6-3.17,11.44
		c-0.67,2.67-2.11,3.63-4.94,3.52c-5.82-0.23-11.67-0.32-17.48,0.02c-3.73,0.21-5.3-1.24-6.22-4.65
		c-5.55-20.41-11.26-40.78-16.89-61.17C375.3,212.67,370.33,194.54,365.02,175.23z"/>
	<path class="st0" d="M828.56,214.41c0,8.23,0,16.5,0,25.2c-17.95,0-35.81,0-54.44,0c0-7.74-0.09-15.65,0.13-23.56
		c0.02-0.85,1.85-2.37,2.85-2.37c16.63-0.1,33.27-0.01,49.9,0.07C827.46,213.75,827.91,214.12,828.56,214.41z"/>
	<path class="st0" d="M634.71,214.33c0,8.36,0,16.76,0,25.43c-17.95,0-35.66,0-54.19,0c0-8-0.07-16.05,0.12-24.08
		c0.02-0.72,1.74-2,2.68-2.01c16.61-0.08,33.22,0,49.83,0.07C633.61,213.74,634.07,214.08,634.71,214.33z"/>
	<path class="st0" d="M319.49,148.4c0-8.86,0-16.91,0-25.6c8.49,0,16.73-0.09,24.96,0.13c0.88,0.02,2.42,1.84,2.45,2.87
		c0.22,6.62,0.22,13.26-0.02,19.89c-0.03,0.93-1.73,2.57-2.69,2.59C336.09,148.49,327.99,148.4,319.49,148.4z"/>
</g>
</svg>
